<?xml version="1.0" standalone="no"?>
<!DOCTYPE svg PUBLIC "-//W3C//DTD SVG 20010904//EN"
 "http://www.w3.org/TR/2001/REC-SVG-20010904/DTD/svg10.dtd">
<svg version="1.0" xmlns="http://www.w3.org/2000/svg"
 width="545.000000pt" height="153.000000pt" viewBox="0 0 545.000000 153.000000"
 preserveAspectRatio="xMidYMid meet">

<g transform="translate(0.000000,153.000000) scale(0.100000,-0.100000)"
fill="#000000" stroke="none">
<path d="M693 1250 c-97 -14 -145 -45 -130 -84 13 -34 76 -49 214 -54 168 -5
203 0 203 33 0 14 -6 25 -12 25 -7 1 -74 1 -150 0 -155 -1 -194 14 -60 25 95
7 229 -8 250 -28 6 -7 13 -31 15 -52 l2 -40 -95 -8 c-87 -8 -301 4 -356 19
-35 9 -75 -33 -81 -87 -7 -59 8 -86 55 -98 60 -16 269 -29 380 -24 l104 6 -6
-44 c-3 -24 -15 -136 -27 -249 -11 -113 -22 -212 -25 -222 -3 -9 -19 -21 -36
-27 -41 -15 -190 -14 -223 1 -33 15 -39 39 -65 293 -22 221 -33 257 -65 224
-14 -14 -13 -40 10 -260 32 -311 33 -313 197 -325 136 -11 222 22 241 91 4 11
18 132 32 269 14 137 28 252 31 257 3 5 11 9 19 9 7 0 23 12 35 27 18 23 21
36 15 68 -7 48 -30 85 -50 85 -17 0 -35 39 -35 74 0 37 -35 72 -84 85 -62 15
-229 21 -303 11z m9 -242 c88 -9 141 -9 251 1 115 10 141 10 148 -1 14 -21 10
-37 -11 -48 -47 -25 -402 -29 -509 -5 -26 5 -31 11 -31 34 0 32 9 44 27 37 7
-3 63 -11 125 -18z"/>
<path d="M1513 988 c-10 -14 -46 -385 -38 -398 2 -4 41 -8 85 -8 89 -2 134 11
175 52 35 35 35 103 0 144 -24 29 -24 31 -10 66 22 52 19 74 -15 108 -29 28
-35 30 -90 26 -43 -3 -61 -1 -64 9 -7 17 -31 17 -43 1z m145 -74 c45 -31 7
-86 -70 -100 l-38 -6 0 39 c0 71 55 105 108 67z m31 -168 c19 -23 9 -67 -20
-89 -29 -21 -106 -33 -126 -19 -9 5 -11 24 -6 59 6 57 9 59 94 62 30 1 51 -4
58 -13z"/>
<path d="M4211 986 c-7 -8 -18 -75 -24 -148 -10 -110 -15 -133 -29 -136 -12
-2 -15 2 -11 17 9 35 -7 111 -28 132 -26 26 -103 26 -146 -1 -42 -25 -63 -59
-70 -110 -10 -72 -102 -136 -140 -97 -21 21 -19 118 4 159 l18 33 3 -43 c5
-72 55 -67 65 6 8 63 -48 102 -104 72 -46 -25 -78 -139 -59 -209 17 -65 42
-84 102 -79 29 3 62 14 80 28 l30 22 21 -20 c52 -49 123 -48 176 2 14 13 36
27 48 30 21 7 22 5 20 -96 -1 -81 2 -110 16 -135 28 -52 91 -56 123 -8 24 36
29 123 11 168 -15 35 -15 37 3 47 17 9 18 3 22 -94 3 -95 5 -107 28 -131 57
-61 130 -2 130 104 0 31 -6 68 -14 82 -12 23 -11 27 5 37 27 17 36 15 43 -13
4 -14 20 -32 38 -41 26 -14 38 -14 72 -4 23 7 49 19 59 28 16 14 19 14 40 -5
32 -29 54 -34 96 -23 53 14 121 95 121 145 0 30 -39 16 -56 -20 -30 -64 -102
-96 -124 -56 -16 30 -13 36 26 50 75 27 108 154 50 193 -23 16 -64 7 -90 -18
-27 -28 -46 -79 -46 -127 0 -62 -78 -136 -118 -111 -27 17 -27 51 0 57 44 11
80 61 86 117 5 58 -14 90 -55 90 -54 0 -86 -41 -107 -134 -10 -45 -16 -52 -59
-74 -26 -14 -50 -22 -54 -19 -3 4 1 79 8 168 14 150 14 161 -2 170 -34 18 -46
-13 -59 -154 -13 -133 -13 -134 -44 -155 -17 -11 -44 -24 -59 -28 -28 -6 -28
-6 -23 27 3 19 11 94 17 168 10 112 9 135 -2 142 -19 12 -25 11 -38 -5z m424
-205 c-12 -49 -45 -70 -45 -28 0 28 28 69 41 61 6 -3 8 -18 4 -33z m195 11 c0
-22 -27 -62 -42 -62 -13 0 -3 57 13 76 14 17 29 9 29 -14z m-820 -26 c0 -19
10 -49 24 -69 23 -34 23 -36 7 -51 -23 -21 -55 -20 -72 0 -18 22 -16 82 5 122
21 41 36 41 36 -2z m80 -8 l-1 -43 -15 28 c-16 29 -13 57 6 57 5 0 10 -19 10
-42z m356 -235 c7 -40 -9 -83 -31 -83 -12 0 -15 15 -15 77 0 75 0 76 20 58 11
-10 23 -33 26 -52z m-186 38 c20 -39 10 -121 -15 -121 -23 0 -33 64 -19 118 8
27 20 28 34 3z"/>
<path d="M2976 854 c-28 -28 -46 -79 -46 -130 0 -32 -35 -94 -58 -102 -10 -3
-12 18 -10 96 3 95 1 102 -21 126 -33 36 -76 34 -109 -3 l-27 -28 -26 28 c-34
37 -80 39 -114 5 -22 -22 -24 -23 -28 -4 -4 14 -12 19 -29 16 -22 -3 -23 -6
-20 -73 1 -38 -1 -98 -6 -132 -10 -71 -4 -86 28 -81 20 3 25 13 39 83 17 86
47 148 74 153 21 4 30 -30 31 -127 1 -73 2 -76 25 -76 21 0 26 7 41 70 20 84
45 135 66 135 14 0 15 -12 9 -98 -6 -91 -5 -99 16 -126 19 -24 27 -27 57 -22
19 3 42 12 52 21 16 14 18 14 31 -1 51 -61 154 -24 203 73 21 43 20 63 -4 63
-12 0 -25 -13 -36 -35 -30 -64 -102 -96 -124 -56 -16 30 -13 36 26 50 75 27
108 154 50 193 -23 16 -64 7 -90 -18z m64 -66 c0 -23 -26 -58 -43 -58 -12 0
-1 58 14 76 15 18 29 8 29 -18z"/>
<path d="M1811 861 c-18 -12 -41 -114 -41 -189 0 -54 4 -66 26 -88 29 -30 64
-27 101 8 20 19 23 19 38 4 22 -21 61 -20 83 2 16 16 22 17 37 5 37 -26 94
-14 143 30 39 36 26 -5 -14 -44 -42 -39 -84 -121 -84 -162 0 -16 10 -38 25
-52 65 -66 137 2 151 144 5 46 11 62 25 66 27 9 89 82 89 105 0 37 -28 34 -67
-7 l-38 -38 -3 52 c-2 29 2 69 7 90 11 39 1 63 -25 63 -7 0 -32 -38 -54 -85
-30 -64 -48 -89 -71 -101 -23 -11 -34 -13 -42 -5 -14 14 -11 92 4 138 13 42 6
63 -21 63 -26 0 -46 -44 -56 -121 -6 -55 -26 -99 -44 -99 -14 0 -12 75 4 142
12 48 12 60 1 75 -24 32 -48 4 -71 -83 -51 -195 -112 -193 -70 2 16 77 4 108
-33 85z m405 -363 c-7 -45 -30 -88 -46 -88 -17 0 -11 31 17 81 14 27 28 49 31
49 2 0 2 -19 -2 -42z"/>
<path d="M3337 854 c-60 -33 -100 -187 -62 -241 22 -31 61 -37 99 -15 l32 19
21 -23 c34 -38 84 -33 122 13 34 41 56 96 47 118 -11 29 -32 15 -53 -34 -11
-27 -30 -54 -42 -60 -18 -10 -23 -9 -32 12 -8 18 -6 43 9 105 21 89 19 94 -33
106 -66 15 -81 15 -108 0z m73 -83 c-1 -35 -35 -110 -55 -117 -27 -11 -38 11
-30 62 11 78 85 126 85 55z"/>
</g>
</svg>
